<svg height="316.227766" viewBox="0 0 19.263782 19.263782" width="316.227766" xmlns="http://www.w3.org/2000/svg"><g transform="translate(-106.604439 -251.838339)"><path d="m125.73593 261.47094c0 5.24616-4.25379 9.49889-9.49925 9.49889-5.24757 0-9.49995-4.25273-9.49995-9.49889s4.25238-9.50031 9.49995-9.50031c5.24546 0 9.49925 4.25415 9.49925 9.50031" fill="#db1f26"/><g fill="#fff"><path d="m117.85975 264.1209c0 .21978-.17851.39829-.39934.39829-.21943 0-.39829-.17851-.39829-.39829v-2.22567c0-.21979.17886-.39864.39829-.39864.22083 0 .39934.17885.39934.39864z"/><path d="m119.12583 262.80628.89782-1.07915c.14182-.16862.11818-.42016-.0497-.56127-.16934-.14146-.42157-.11782-.56198.0508l-1.10737 1.33139c-.127.15204-.1217.369.004.5147l.00035.0007 1.08867 1.31234c.14111.16757.39264.19085.56162.0512.16934-.14146.19121-.39299.0498-.56233z"/><path d="m112.29383 264.1209c0 .21978-.17815.39829-.39829.39829-.22083 0-.39863-.17851-.39863-.39829v-2.22567c0-.21979.1778-.39864.39863-.39864.22014 0 .39829.17885.39829.39864z"/><path d="m114.71988 263.74265c-.52317 0-.94791-.42298-.94791-.94686 0-.52281.42474-.9465.94791-.9465s.94827.42369.94827.9465c0 .52388-.4251.94686-.94827.94686m0-2.66912c-.95109 0-1.72226.76871-1.72402 1.7198v.002 2.43875c0 .21978.17921.39864.39969.39864.22014 0 .39899-.17886.39899-.39864v-.98425c.26706.17039.58456.26952.92534.26952.95074 0 1.72191-.77082 1.72191-1.72332 0-.95073-.77117-1.72226-1.72191-1.72226"/><path d="m122.19849 263.74265c-.52211 0-.94721-.42298-.94721-.94686 0-.52281.4251-.9465.94721-.9465.52282 0 .94791.42369.94791.9465 0 .52388-.42509.94686-.94791.94686m0-2.66912c-.95144 0-1.72332.77153-1.72332 1.72226 0 .9525.77188 1.72332 1.72332 1.72332.95179 0 1.72367-.77082 1.72367-1.72332 0-.95073-.77188-1.72226-1.72367-1.72226"/></g><path d="m111.31198 265.12138c0 .28187-.22895.51117-.51188.51117-.28222 0-.51118-.2293-.51118-.51117 0-.28328.22896-.51117.51118-.51117.28293 0 .51188.22789.51188.51117" fill="#110f0d"/></g></svg>